<mxfile host="app.diagrams.net" modified="2022-09-30T08:33:53.671Z" agent="5.0 (Windows NT 10.0; Win64; x64) AppleWebKit/537.36 (KHTML, like Gecko) Chrome/105.0.0.0 Safari/537.36" etag="ZfJG2Vr2dTGWfSL5tGBw" version="20.3.7" type="github">
  <diagram id="R2lEEEUBdFMjLlhIrx00" name="Page-1">
    <mxGraphModel dx="2020" dy="873" grid="1" gridSize="10" guides="1" tooltips="1" connect="1" arrows="1" fold="1" page="1" pageScale="1" pageWidth="1654" pageHeight="1169" math="0" shadow="0" extFonts="Permanent Marker^https://fonts.googleapis.com/css?family=Permanent+Marker">
      <root>
        <mxCell id="0" />
        <mxCell id="1" parent="0" />
        <mxCell id="FRMqzwrZNOb-Sqk7gH52-41" style="edgeStyle=orthogonalEdgeStyle;rounded=0;orthogonalLoop=1;jettySize=auto;html=1;exitX=1;exitY=0;exitDx=0;exitDy=0;entryX=0;entryY=0.5;entryDx=0;entryDy=0;" edge="1" parent="1" source="FRMqzwrZNOb-Sqk7gH52-1" target="FRMqzwrZNOb-Sqk7gH52-40">
          <mxGeometry relative="1" as="geometry" />
        </mxCell>
        <mxCell id="FRMqzwrZNOb-Sqk7gH52-51" style="edgeStyle=orthogonalEdgeStyle;rounded=0;orthogonalLoop=1;jettySize=auto;html=1;exitX=0.75;exitY=1;exitDx=0;exitDy=0;entryX=0.5;entryY=1;entryDx=0;entryDy=0;" edge="1" parent="1" source="FRMqzwrZNOb-Sqk7gH52-1" target="FRMqzwrZNOb-Sqk7gH52-47">
          <mxGeometry relative="1" as="geometry" />
        </mxCell>
        <mxCell id="FRMqzwrZNOb-Sqk7gH52-60" value="" style="edgeStyle=orthogonalEdgeStyle;rounded=0;orthogonalLoop=1;jettySize=auto;html=1;" edge="1" parent="1" source="FRMqzwrZNOb-Sqk7gH52-1" target="FRMqzwrZNOb-Sqk7gH52-59">
          <mxGeometry relative="1" as="geometry" />
        </mxCell>
        <mxCell id="FRMqzwrZNOb-Sqk7gH52-1" value="Student" style="whiteSpace=wrap;html=1;align=center;" vertex="1" parent="1">
          <mxGeometry x="560" y="570" width="80" height="40" as="geometry" />
        </mxCell>
        <mxCell id="FRMqzwrZNOb-Sqk7gH52-43" style="edgeStyle=orthogonalEdgeStyle;rounded=0;orthogonalLoop=1;jettySize=auto;html=1;exitX=0.5;exitY=1;exitDx=0;exitDy=0;" edge="1" parent="1" source="FRMqzwrZNOb-Sqk7gH52-2">
          <mxGeometry relative="1" as="geometry">
            <mxPoint x="930" y="610.25" as="targetPoint" />
          </mxGeometry>
        </mxCell>
        <mxCell id="FRMqzwrZNOb-Sqk7gH52-45" style="edgeStyle=orthogonalEdgeStyle;rounded=0;orthogonalLoop=1;jettySize=auto;html=1;exitX=0.75;exitY=0;exitDx=0;exitDy=0;" edge="1" parent="1" source="FRMqzwrZNOb-Sqk7gH52-2" target="FRMqzwrZNOb-Sqk7gH52-40">
          <mxGeometry relative="1" as="geometry" />
        </mxCell>
        <mxCell id="FRMqzwrZNOb-Sqk7gH52-49" style="edgeStyle=orthogonalEdgeStyle;rounded=0;orthogonalLoop=1;jettySize=auto;html=1;exitX=1;exitY=0.75;exitDx=0;exitDy=0;entryX=0;entryY=0.5;entryDx=0;entryDy=0;" edge="1" parent="1" source="FRMqzwrZNOb-Sqk7gH52-2" target="FRMqzwrZNOb-Sqk7gH52-47">
          <mxGeometry relative="1" as="geometry" />
        </mxCell>
        <mxCell id="FRMqzwrZNOb-Sqk7gH52-64" value="" style="edgeStyle=orthogonalEdgeStyle;rounded=0;orthogonalLoop=1;jettySize=auto;html=1;" edge="1" parent="1" source="FRMqzwrZNOb-Sqk7gH52-2" target="FRMqzwrZNOb-Sqk7gH52-63">
          <mxGeometry relative="1" as="geometry" />
        </mxCell>
        <mxCell id="FRMqzwrZNOb-Sqk7gH52-2" value="Instructor" style="whiteSpace=wrap;html=1;align=center;" vertex="1" parent="1">
          <mxGeometry x="890" y="570" width="80" height="40" as="geometry" />
        </mxCell>
        <mxCell id="FRMqzwrZNOb-Sqk7gH52-42" style="edgeStyle=orthogonalEdgeStyle;rounded=0;orthogonalLoop=1;jettySize=auto;html=1;exitX=0;exitY=0;exitDx=0;exitDy=0;entryX=1;entryY=0.5;entryDx=0;entryDy=0;" edge="1" parent="1" source="FRMqzwrZNOb-Sqk7gH52-3" target="FRMqzwrZNOb-Sqk7gH52-40">
          <mxGeometry relative="1" as="geometry" />
        </mxCell>
        <mxCell id="FRMqzwrZNOb-Sqk7gH52-68" value="" style="edgeStyle=orthogonalEdgeStyle;rounded=0;orthogonalLoop=1;jettySize=auto;html=1;" edge="1" parent="1" source="FRMqzwrZNOb-Sqk7gH52-3" target="FRMqzwrZNOb-Sqk7gH52-67">
          <mxGeometry relative="1" as="geometry" />
        </mxCell>
        <mxCell id="FRMqzwrZNOb-Sqk7gH52-3" value="Admin" style="whiteSpace=wrap;html=1;align=center;" vertex="1" parent="1">
          <mxGeometry x="1260" y="570" width="100" height="40" as="geometry" />
        </mxCell>
        <mxCell id="FRMqzwrZNOb-Sqk7gH52-16" style="edgeStyle=orthogonalEdgeStyle;rounded=0;orthogonalLoop=1;jettySize=auto;html=1;exitX=1;exitY=1;exitDx=0;exitDy=0;entryX=0;entryY=0;entryDx=0;entryDy=0;" edge="1" parent="1" source="FRMqzwrZNOb-Sqk7gH52-5" target="FRMqzwrZNOb-Sqk7gH52-1">
          <mxGeometry relative="1" as="geometry" />
        </mxCell>
        <mxCell id="FRMqzwrZNOb-Sqk7gH52-5" value="Stud_ID" style="ellipse;whiteSpace=wrap;html=1;align=center;fontStyle=4;" vertex="1" parent="1">
          <mxGeometry x="440" y="500" width="100" height="40" as="geometry" />
        </mxCell>
        <mxCell id="FRMqzwrZNOb-Sqk7gH52-55" style="edgeStyle=orthogonalEdgeStyle;rounded=0;orthogonalLoop=1;jettySize=auto;html=1;exitX=0;exitY=0.5;exitDx=0;exitDy=0;entryX=1;entryY=1;entryDx=0;entryDy=0;" edge="1" parent="1" source="FRMqzwrZNOb-Sqk7gH52-6" target="FRMqzwrZNOb-Sqk7gH52-1">
          <mxGeometry relative="1" as="geometry" />
        </mxCell>
        <mxCell id="FRMqzwrZNOb-Sqk7gH52-6" value="Name" style="ellipse;whiteSpace=wrap;html=1;align=center;" vertex="1" parent="1">
          <mxGeometry x="670" y="610" width="100" height="40" as="geometry" />
        </mxCell>
        <mxCell id="FRMqzwrZNOb-Sqk7gH52-13" style="edgeStyle=orthogonalEdgeStyle;rounded=0;orthogonalLoop=1;jettySize=auto;html=1;exitX=0.5;exitY=1;exitDx=0;exitDy=0;entryX=0.25;entryY=0;entryDx=0;entryDy=0;" edge="1" parent="1" source="FRMqzwrZNOb-Sqk7gH52-7" target="FRMqzwrZNOb-Sqk7gH52-1">
          <mxGeometry relative="1" as="geometry" />
        </mxCell>
        <mxCell id="FRMqzwrZNOb-Sqk7gH52-7" value="NIC" style="ellipse;whiteSpace=wrap;html=1;align=center;" vertex="1" parent="1">
          <mxGeometry x="530" y="470" width="80" height="30" as="geometry" />
        </mxCell>
        <mxCell id="FRMqzwrZNOb-Sqk7gH52-15" style="edgeStyle=orthogonalEdgeStyle;rounded=0;orthogonalLoop=1;jettySize=auto;html=1;exitX=0.5;exitY=1;exitDx=0;exitDy=0;entryX=0.5;entryY=0;entryDx=0;entryDy=0;" edge="1" parent="1" source="FRMqzwrZNOb-Sqk7gH52-8" target="FRMqzwrZNOb-Sqk7gH52-1">
          <mxGeometry relative="1" as="geometry" />
        </mxCell>
        <mxCell id="FRMqzwrZNOb-Sqk7gH52-8" value="Address" style="ellipse;whiteSpace=wrap;html=1;align=center;" vertex="1" parent="1">
          <mxGeometry x="650" y="470" width="100" height="40" as="geometry" />
        </mxCell>
        <mxCell id="FRMqzwrZNOb-Sqk7gH52-18" style="edgeStyle=orthogonalEdgeStyle;rounded=0;orthogonalLoop=1;jettySize=auto;html=1;exitX=1;exitY=0;exitDx=0;exitDy=0;entryX=0;entryY=0.5;entryDx=0;entryDy=0;" edge="1" parent="1" source="FRMqzwrZNOb-Sqk7gH52-9" target="FRMqzwrZNOb-Sqk7gH52-1">
          <mxGeometry relative="1" as="geometry" />
        </mxCell>
        <mxCell id="FRMqzwrZNOb-Sqk7gH52-9" value="Birthday" style="ellipse;whiteSpace=wrap;html=1;align=center;" vertex="1" parent="1">
          <mxGeometry x="430" y="620" width="100" height="40" as="geometry" />
        </mxCell>
        <mxCell id="FRMqzwrZNOb-Sqk7gH52-17" style="edgeStyle=orthogonalEdgeStyle;rounded=0;orthogonalLoop=1;jettySize=auto;html=1;exitX=1;exitY=0.5;exitDx=0;exitDy=0;entryX=0;entryY=0.25;entryDx=0;entryDy=0;" edge="1" parent="1" source="FRMqzwrZNOb-Sqk7gH52-10" target="FRMqzwrZNOb-Sqk7gH52-1">
          <mxGeometry relative="1" as="geometry" />
        </mxCell>
        <mxCell id="FRMqzwrZNOb-Sqk7gH52-10" value="Email" style="ellipse;whiteSpace=wrap;html=1;align=center;" vertex="1" parent="1">
          <mxGeometry x="420" y="560" width="100" height="40" as="geometry" />
        </mxCell>
        <mxCell id="FRMqzwrZNOb-Sqk7gH52-90" style="edgeStyle=orthogonalEdgeStyle;rounded=0;orthogonalLoop=1;jettySize=auto;html=1;exitX=1;exitY=0.5;exitDx=0;exitDy=0;entryX=0.086;entryY=1.081;entryDx=0;entryDy=0;entryPerimeter=0;" edge="1" parent="1" source="FRMqzwrZNOb-Sqk7gH52-11" target="FRMqzwrZNOb-Sqk7gH52-1">
          <mxGeometry relative="1" as="geometry" />
        </mxCell>
        <mxCell id="FRMqzwrZNOb-Sqk7gH52-11" value="Telephone No." style="ellipse;whiteSpace=wrap;html=1;align=center;" vertex="1" parent="1">
          <mxGeometry x="280" y="660" width="100" height="40" as="geometry" />
        </mxCell>
        <mxCell id="FRMqzwrZNOb-Sqk7gH52-28" style="edgeStyle=orthogonalEdgeStyle;rounded=0;orthogonalLoop=1;jettySize=auto;html=1;exitX=1;exitY=1;exitDx=0;exitDy=0;entryX=0;entryY=0.25;entryDx=0;entryDy=0;" edge="1" parent="1" source="FRMqzwrZNOb-Sqk7gH52-21" target="FRMqzwrZNOb-Sqk7gH52-2">
          <mxGeometry relative="1" as="geometry" />
        </mxCell>
        <mxCell id="FRMqzwrZNOb-Sqk7gH52-21" value="NIC" style="ellipse;whiteSpace=wrap;html=1;align=center;" vertex="1" parent="1">
          <mxGeometry x="790" y="510" width="80" height="30" as="geometry" />
        </mxCell>
        <mxCell id="FRMqzwrZNOb-Sqk7gH52-30" style="edgeStyle=orthogonalEdgeStyle;rounded=0;orthogonalLoop=1;jettySize=auto;html=1;exitX=0;exitY=0;exitDx=0;exitDy=0;entryX=0.75;entryY=1;entryDx=0;entryDy=0;" edge="1" parent="1" source="FRMqzwrZNOb-Sqk7gH52-22" target="FRMqzwrZNOb-Sqk7gH52-2">
          <mxGeometry relative="1" as="geometry" />
        </mxCell>
        <mxCell id="FRMqzwrZNOb-Sqk7gH52-22" value="Email" style="ellipse;whiteSpace=wrap;html=1;align=center;" vertex="1" parent="1">
          <mxGeometry x="960" y="660" width="100" height="40" as="geometry" />
        </mxCell>
        <mxCell id="FRMqzwrZNOb-Sqk7gH52-29" style="edgeStyle=orthogonalEdgeStyle;rounded=0;orthogonalLoop=1;jettySize=auto;html=1;exitX=1;exitY=0;exitDx=0;exitDy=0;entryX=0.156;entryY=1.069;entryDx=0;entryDy=0;entryPerimeter=0;" edge="1" parent="1" source="FRMqzwrZNOb-Sqk7gH52-23" target="FRMqzwrZNOb-Sqk7gH52-2">
          <mxGeometry relative="1" as="geometry" />
        </mxCell>
        <mxCell id="FRMqzwrZNOb-Sqk7gH52-23" value="Telephone No." style="ellipse;whiteSpace=wrap;html=1;align=center;" vertex="1" parent="1">
          <mxGeometry x="770" y="630" width="100" height="40" as="geometry" />
        </mxCell>
        <mxCell id="FRMqzwrZNOb-Sqk7gH52-27" style="edgeStyle=orthogonalEdgeStyle;rounded=0;orthogonalLoop=1;jettySize=auto;html=1;exitX=0;exitY=1;exitDx=0;exitDy=0;entryX=1;entryY=0.25;entryDx=0;entryDy=0;" edge="1" parent="1" source="FRMqzwrZNOb-Sqk7gH52-24" target="FRMqzwrZNOb-Sqk7gH52-2">
          <mxGeometry relative="1" as="geometry" />
        </mxCell>
        <mxCell id="FRMqzwrZNOb-Sqk7gH52-24" value="Name" style="ellipse;whiteSpace=wrap;html=1;align=center;" vertex="1" parent="1">
          <mxGeometry x="1000" y="500" width="100" height="40" as="geometry" />
        </mxCell>
        <mxCell id="FRMqzwrZNOb-Sqk7gH52-56" style="edgeStyle=orthogonalEdgeStyle;rounded=0;orthogonalLoop=1;jettySize=auto;html=1;exitX=0.5;exitY=1;exitDx=0;exitDy=0;entryX=0.38;entryY=-0.058;entryDx=0;entryDy=0;entryPerimeter=0;" edge="1" parent="1" source="FRMqzwrZNOb-Sqk7gH52-25" target="FRMqzwrZNOb-Sqk7gH52-2">
          <mxGeometry relative="1" as="geometry" />
        </mxCell>
        <mxCell id="FRMqzwrZNOb-Sqk7gH52-25" value="Ins_ID" style="ellipse;whiteSpace=wrap;html=1;align=center;fontStyle=4;" vertex="1" parent="1">
          <mxGeometry x="855" y="460" width="100" height="40" as="geometry" />
        </mxCell>
        <mxCell id="FRMqzwrZNOb-Sqk7gH52-33" style="edgeStyle=orthogonalEdgeStyle;rounded=0;orthogonalLoop=1;jettySize=auto;html=1;exitX=0;exitY=0.5;exitDx=0;exitDy=0;entryX=0.75;entryY=0;entryDx=0;entryDy=0;" edge="1" parent="1" source="FRMqzwrZNOb-Sqk7gH52-31" target="FRMqzwrZNOb-Sqk7gH52-3">
          <mxGeometry relative="1" as="geometry" />
        </mxCell>
        <mxCell id="FRMqzwrZNOb-Sqk7gH52-31" value="Name" style="ellipse;whiteSpace=wrap;html=1;align=center;" vertex="1" parent="1">
          <mxGeometry x="1380" y="505" width="100" height="40" as="geometry" />
        </mxCell>
        <mxCell id="FRMqzwrZNOb-Sqk7gH52-34" style="edgeStyle=orthogonalEdgeStyle;rounded=0;orthogonalLoop=1;jettySize=auto;html=1;exitX=0;exitY=0.5;exitDx=0;exitDy=0;entryX=0.75;entryY=1;entryDx=0;entryDy=0;" edge="1" parent="1" source="FRMqzwrZNOb-Sqk7gH52-32" target="FRMqzwrZNOb-Sqk7gH52-3">
          <mxGeometry relative="1" as="geometry" />
        </mxCell>
        <mxCell id="FRMqzwrZNOb-Sqk7gH52-32" value="Admin_ID" style="ellipse;whiteSpace=wrap;html=1;align=center;fontStyle=4;" vertex="1" parent="1">
          <mxGeometry x="1380" y="630" width="100" height="40" as="geometry" />
        </mxCell>
        <mxCell id="FRMqzwrZNOb-Sqk7gH52-35" value="Users" style="whiteSpace=wrap;html=1;align=center;" vertex="1" parent="1">
          <mxGeometry x="920" y="250" width="100" height="40" as="geometry" />
        </mxCell>
        <mxCell id="FRMqzwrZNOb-Sqk7gH52-38" style="edgeStyle=orthogonalEdgeStyle;rounded=0;orthogonalLoop=1;jettySize=auto;html=1;exitX=1;exitY=1;exitDx=0;exitDy=0;entryX=0.25;entryY=0;entryDx=0;entryDy=0;" edge="1" parent="1" source="FRMqzwrZNOb-Sqk7gH52-36" target="FRMqzwrZNOb-Sqk7gH52-35">
          <mxGeometry relative="1" as="geometry" />
        </mxCell>
        <mxCell id="FRMqzwrZNOb-Sqk7gH52-36" value="Username" style="ellipse;whiteSpace=wrap;html=1;align=center;fontStyle=4;" vertex="1" parent="1">
          <mxGeometry x="820" y="170" width="100" height="40" as="geometry" />
        </mxCell>
        <mxCell id="FRMqzwrZNOb-Sqk7gH52-39" style="edgeStyle=orthogonalEdgeStyle;rounded=0;orthogonalLoop=1;jettySize=auto;html=1;exitX=0;exitY=1;exitDx=0;exitDy=0;entryX=0.75;entryY=0;entryDx=0;entryDy=0;" edge="1" parent="1" source="FRMqzwrZNOb-Sqk7gH52-37" target="FRMqzwrZNOb-Sqk7gH52-35">
          <mxGeometry relative="1" as="geometry" />
        </mxCell>
        <mxCell id="FRMqzwrZNOb-Sqk7gH52-37" value="Password" style="ellipse;whiteSpace=wrap;html=1;align=center;fontStyle=4;" vertex="1" parent="1">
          <mxGeometry x="1020" y="170" width="100" height="40" as="geometry" />
        </mxCell>
        <mxCell id="FRMqzwrZNOb-Sqk7gH52-46" style="edgeStyle=orthogonalEdgeStyle;rounded=0;orthogonalLoop=1;jettySize=auto;html=1;exitX=0.5;exitY=0;exitDx=0;exitDy=0;entryX=0.5;entryY=1;entryDx=0;entryDy=0;" edge="1" parent="1" source="FRMqzwrZNOb-Sqk7gH52-40" target="FRMqzwrZNOb-Sqk7gH52-35">
          <mxGeometry relative="1" as="geometry">
            <mxPoint x="965" y="300" as="targetPoint" />
          </mxGeometry>
        </mxCell>
        <mxCell id="FRMqzwrZNOb-Sqk7gH52-40" value="is" style="shape=rhombus;perimeter=rhombusPerimeter;whiteSpace=wrap;html=1;align=center;" vertex="1" parent="1">
          <mxGeometry x="905" y="370" width="120" height="60" as="geometry" />
        </mxCell>
        <mxCell id="FRMqzwrZNOb-Sqk7gH52-48" style="edgeStyle=orthogonalEdgeStyle;rounded=0;orthogonalLoop=1;jettySize=auto;html=1;exitX=0.5;exitY=0;exitDx=0;exitDy=0;entryX=0.25;entryY=1;entryDx=0;entryDy=0;" edge="1" parent="1" source="FRMqzwrZNOb-Sqk7gH52-47" target="FRMqzwrZNOb-Sqk7gH52-3">
          <mxGeometry relative="1" as="geometry" />
        </mxCell>
        <mxCell id="FRMqzwrZNOb-Sqk7gH52-47" value="Added By" style="shape=rhombus;perimeter=rhombusPerimeter;whiteSpace=wrap;html=1;align=center;" vertex="1" parent="1">
          <mxGeometry x="1160" y="650" width="120" height="60" as="geometry" />
        </mxCell>
        <mxCell id="FRMqzwrZNOb-Sqk7gH52-54" value="" style="edgeStyle=orthogonalEdgeStyle;rounded=0;orthogonalLoop=1;jettySize=auto;html=1;" edge="1" parent="1" source="FRMqzwrZNOb-Sqk7gH52-52" target="FRMqzwrZNOb-Sqk7gH52-1">
          <mxGeometry relative="1" as="geometry" />
        </mxCell>
        <mxCell id="FRMqzwrZNOb-Sqk7gH52-52" value="Start_day" style="ellipse;whiteSpace=wrap;html=1;align=center;" vertex="1" parent="1">
          <mxGeometry x="700" y="540" width="100" height="40" as="geometry" />
        </mxCell>
        <mxCell id="FRMqzwrZNOb-Sqk7gH52-69" style="edgeStyle=orthogonalEdgeStyle;rounded=0;orthogonalLoop=1;jettySize=auto;html=1;exitX=1;exitY=0.5;exitDx=0;exitDy=0;entryX=0;entryY=0.5;entryDx=0;entryDy=0;" edge="1" parent="1" source="FRMqzwrZNOb-Sqk7gH52-57" target="FRMqzwrZNOb-Sqk7gH52-67">
          <mxGeometry relative="1" as="geometry" />
        </mxCell>
        <mxCell id="FRMqzwrZNOb-Sqk7gH52-84" style="edgeStyle=orthogonalEdgeStyle;rounded=0;orthogonalLoop=1;jettySize=auto;html=1;exitX=1;exitY=0.75;exitDx=0;exitDy=0;entryX=0;entryY=0.5;entryDx=0;entryDy=0;" edge="1" parent="1" source="FRMqzwrZNOb-Sqk7gH52-57" target="FRMqzwrZNOb-Sqk7gH52-79">
          <mxGeometry relative="1" as="geometry" />
        </mxCell>
        <mxCell id="FRMqzwrZNOb-Sqk7gH52-57" value="Course" style="whiteSpace=wrap;html=1;align=center;" vertex="1" parent="1">
          <mxGeometry x="720" y="890" width="100" height="40" as="geometry" />
        </mxCell>
        <mxCell id="FRMqzwrZNOb-Sqk7gH52-96" style="edgeStyle=orthogonalEdgeStyle;rounded=0;orthogonalLoop=1;jettySize=auto;html=1;exitX=1;exitY=0.5;exitDx=0;exitDy=0;entryX=0.1;entryY=0;entryDx=0;entryDy=0;entryPerimeter=0;" edge="1" parent="1" source="FRMqzwrZNOb-Sqk7gH52-59" target="FRMqzwrZNOb-Sqk7gH52-57">
          <mxGeometry relative="1" as="geometry" />
        </mxCell>
        <mxCell id="FRMqzwrZNOb-Sqk7gH52-59" value="Follow" style="rhombus;whiteSpace=wrap;html=1;" vertex="1" parent="1">
          <mxGeometry x="550" y="810" width="80" height="80" as="geometry" />
        </mxCell>
        <mxCell id="FRMqzwrZNOb-Sqk7gH52-65" style="edgeStyle=orthogonalEdgeStyle;rounded=0;orthogonalLoop=1;jettySize=auto;html=1;exitX=0.5;exitY=1;exitDx=0;exitDy=0;entryX=0.75;entryY=0;entryDx=0;entryDy=0;" edge="1" parent="1" source="FRMqzwrZNOb-Sqk7gH52-63" target="FRMqzwrZNOb-Sqk7gH52-57">
          <mxGeometry relative="1" as="geometry" />
        </mxCell>
        <mxCell id="FRMqzwrZNOb-Sqk7gH52-63" value="Teaches" style="rhombus;whiteSpace=wrap;html=1;" vertex="1" parent="1">
          <mxGeometry x="855" y="770" width="80" height="80" as="geometry" />
        </mxCell>
        <mxCell id="FRMqzwrZNOb-Sqk7gH52-67" value="Enterd_by" style="rhombus;whiteSpace=wrap;html=1;" vertex="1" parent="1">
          <mxGeometry x="1270" y="870" width="80" height="80" as="geometry" />
        </mxCell>
        <mxCell id="FRMqzwrZNOb-Sqk7gH52-71" style="edgeStyle=orthogonalEdgeStyle;rounded=0;orthogonalLoop=1;jettySize=auto;html=1;exitX=1;exitY=0;exitDx=0;exitDy=0;entryX=0.25;entryY=1;entryDx=0;entryDy=0;" edge="1" parent="1" source="FRMqzwrZNOb-Sqk7gH52-70" target="FRMqzwrZNOb-Sqk7gH52-1">
          <mxGeometry relative="1" as="geometry" />
        </mxCell>
        <mxCell id="FRMqzwrZNOb-Sqk7gH52-74" style="edgeStyle=orthogonalEdgeStyle;rounded=0;orthogonalLoop=1;jettySize=auto;html=1;exitX=0.5;exitY=1;exitDx=0;exitDy=0;entryX=0;entryY=0.5;entryDx=0;entryDy=0;" edge="1" parent="1" source="FRMqzwrZNOb-Sqk7gH52-70" target="FRMqzwrZNOb-Sqk7gH52-72">
          <mxGeometry relative="1" as="geometry" />
        </mxCell>
        <mxCell id="FRMqzwrZNOb-Sqk7gH52-70" value="Faculty" style="whiteSpace=wrap;html=1;align=center;" vertex="1" parent="1">
          <mxGeometry x="330" y="820" width="100" height="40" as="geometry" />
        </mxCell>
        <mxCell id="FRMqzwrZNOb-Sqk7gH52-75" style="edgeStyle=orthogonalEdgeStyle;rounded=0;orthogonalLoop=1;jettySize=auto;html=1;exitX=1;exitY=0.5;exitDx=0;exitDy=0;entryX=0;entryY=0.5;entryDx=0;entryDy=0;" edge="1" parent="1" source="FRMqzwrZNOb-Sqk7gH52-72" target="FRMqzwrZNOb-Sqk7gH52-57">
          <mxGeometry relative="1" as="geometry" />
        </mxCell>
        <mxCell id="FRMqzwrZNOb-Sqk7gH52-72" value="Provide" style="rhombus;whiteSpace=wrap;html=1;" vertex="1" parent="1">
          <mxGeometry x="450" y="900" width="80" height="80" as="geometry" />
        </mxCell>
        <mxCell id="FRMqzwrZNOb-Sqk7gH52-80" style="edgeStyle=orthogonalEdgeStyle;rounded=0;orthogonalLoop=1;jettySize=auto;html=1;exitX=0.5;exitY=0;exitDx=0;exitDy=0;entryX=0;entryY=0.75;entryDx=0;entryDy=0;" edge="1" parent="1" source="FRMqzwrZNOb-Sqk7gH52-76" target="FRMqzwrZNOb-Sqk7gH52-57">
          <mxGeometry relative="1" as="geometry" />
        </mxCell>
        <mxCell id="FRMqzwrZNOb-Sqk7gH52-76" value="Name" style="ellipse;whiteSpace=wrap;html=1;align=center;" vertex="1" parent="1">
          <mxGeometry x="630" y="940" width="80" height="30" as="geometry" />
        </mxCell>
        <mxCell id="FRMqzwrZNOb-Sqk7gH52-81" style="edgeStyle=orthogonalEdgeStyle;rounded=0;orthogonalLoop=1;jettySize=auto;html=1;exitX=0.5;exitY=0;exitDx=0;exitDy=0;entryX=0.25;entryY=1;entryDx=0;entryDy=0;" edge="1" parent="1" source="FRMqzwrZNOb-Sqk7gH52-77" target="FRMqzwrZNOb-Sqk7gH52-57">
          <mxGeometry relative="1" as="geometry" />
        </mxCell>
        <mxCell id="FRMqzwrZNOb-Sqk7gH52-77" value="Semester" style="ellipse;whiteSpace=wrap;html=1;align=center;" vertex="1" parent="1">
          <mxGeometry x="680" y="970" width="80" height="30" as="geometry" />
        </mxCell>
        <mxCell id="FRMqzwrZNOb-Sqk7gH52-86" style="edgeStyle=orthogonalEdgeStyle;rounded=0;orthogonalLoop=1;jettySize=auto;html=1;exitX=0;exitY=0;exitDx=0;exitDy=0;entryX=0.843;entryY=1.032;entryDx=0;entryDy=0;entryPerimeter=0;" edge="1" parent="1" source="FRMqzwrZNOb-Sqk7gH52-78" target="FRMqzwrZNOb-Sqk7gH52-57">
          <mxGeometry relative="1" as="geometry" />
        </mxCell>
        <mxCell id="FRMqzwrZNOb-Sqk7gH52-78" value="Year" style="ellipse;whiteSpace=wrap;html=1;align=center;" vertex="1" parent="1">
          <mxGeometry x="820" y="960" width="80" height="30" as="geometry" />
        </mxCell>
        <mxCell id="FRMqzwrZNOb-Sqk7gH52-79" value="Course_ID" style="ellipse;whiteSpace=wrap;html=1;align=center;fontStyle=4;" vertex="1" parent="1">
          <mxGeometry x="870" y="920" width="100" height="40" as="geometry" />
        </mxCell>
        <mxCell id="FRMqzwrZNOb-Sqk7gH52-89" style="edgeStyle=orthogonalEdgeStyle;rounded=0;orthogonalLoop=1;jettySize=auto;html=1;exitX=0.5;exitY=0;exitDx=0;exitDy=0;entryX=0.5;entryY=1;entryDx=0;entryDy=0;" edge="1" parent="1" source="FRMqzwrZNOb-Sqk7gH52-87" target="FRMqzwrZNOb-Sqk7gH52-57">
          <mxGeometry relative="1" as="geometry" />
        </mxCell>
        <mxCell id="FRMqzwrZNOb-Sqk7gH52-87" value="Credit" style="ellipse;whiteSpace=wrap;html=1;align=center;" vertex="1" parent="1">
          <mxGeometry x="747" y="1000" width="80" height="30" as="geometry" />
        </mxCell>
        <mxCell id="FRMqzwrZNOb-Sqk7gH52-92" style="edgeStyle=orthogonalEdgeStyle;rounded=0;orthogonalLoop=1;jettySize=auto;html=1;exitX=1;exitY=0.5;exitDx=0;exitDy=0;entryX=0.5;entryY=0;entryDx=0;entryDy=0;" edge="1" parent="1" source="FRMqzwrZNOb-Sqk7gH52-91" target="FRMqzwrZNOb-Sqk7gH52-70">
          <mxGeometry relative="1" as="geometry" />
        </mxCell>
        <mxCell id="FRMqzwrZNOb-Sqk7gH52-91" value="Facult_Name" style="ellipse;whiteSpace=wrap;html=1;align=center;" vertex="1" parent="1">
          <mxGeometry x="210" y="760" width="100" height="40" as="geometry" />
        </mxCell>
        <mxCell id="FRMqzwrZNOb-Sqk7gH52-95" style="edgeStyle=orthogonalEdgeStyle;rounded=0;orthogonalLoop=1;jettySize=auto;html=1;exitX=1;exitY=0.5;exitDx=0;exitDy=0;" edge="1" parent="1" source="FRMqzwrZNOb-Sqk7gH52-94">
          <mxGeometry relative="1" as="geometry">
            <mxPoint x="330" y="840" as="targetPoint" />
          </mxGeometry>
        </mxCell>
        <mxCell id="FRMqzwrZNOb-Sqk7gH52-94" value="Faculty_ID" style="ellipse;whiteSpace=wrap;html=1;align=center;fontStyle=4;" vertex="1" parent="1">
          <mxGeometry x="180" y="830" width="100" height="40" as="geometry" />
        </mxCell>
        <mxCell id="FRMqzwrZNOb-Sqk7gH52-98" style="edgeStyle=orthogonalEdgeStyle;rounded=0;orthogonalLoop=1;jettySize=auto;html=1;exitX=0.5;exitY=1;exitDx=0;exitDy=0;entryX=0.5;entryY=0;entryDx=0;entryDy=0;" edge="1" parent="1" source="FRMqzwrZNOb-Sqk7gH52-97" target="FRMqzwrZNOb-Sqk7gH52-57">
          <mxGeometry relative="1" as="geometry" />
        </mxCell>
        <mxCell id="FRMqzwrZNOb-Sqk7gH52-97" value="Duration" style="ellipse;whiteSpace=wrap;html=1;align=center;" vertex="1" parent="1">
          <mxGeometry x="720" y="800" width="100" height="40" as="geometry" />
        </mxCell>
      </root>
    </mxGraphModel>
  </diagram>
</mxfile>
